<svg width="178" height="49" viewBox="0 0 43 12" version="1.1" xmlns="http://www.w3.org/2000/svg" xmlns:xlink="http://www.w3.org/1999/xlink" xml:space="preserve" xmlns:serif="http://www.serif.com/" style="fill-rule:evenodd;clip-rule:evenodd;stroke-linejoin:round;stroke-miterlimit:2;"><g><path d="M34.77,10.472c-2.069,0.916 -4.142,1.374 -6.217,1.374c-2.076,-0 -4.146,-0.458 -6.217,-1.374l-0,-1.271c2.071,0.916 4.141,1.374 6.217,1.374c2.075,-0 4.148,-0.458 6.217,-1.374l-0,1.271Z" style="fill:#fff;fill-rule:nonzero;"></path><path d="M3.015,2.439c0.42,-0 0.81,0.078 1.172,0.234c0.362,0.157 0.679,0.371 0.951,0.643c0.273,0.273 0.487,0.59 0.644,0.952c0.156,0.361 0.234,0.752 0.234,1.172c-0,0.411 -0.078,0.799 -0.234,1.166c-0.157,0.366 -0.371,0.688 -0.644,0.964c-0.272,0.277 -0.589,0.494 -0.951,0.65c-0.362,0.156 -0.752,0.235 -1.172,0.235c-0.411,-0 -0.8,-0.079 -1.166,-0.235c-0.366,-0.156 -0.688,-0.373 -0.965,-0.65c-0.277,-0.276 -0.493,-0.598 -0.649,-0.964c-0.157,-0.367 -0.235,-0.755 -0.235,-1.166l-0,-5.413l1.192,-0l0,2.412l1.823,-0Zm-0,4.823c0.25,0 0.484,-0.047 0.703,-0.141c0.219,-0.093 0.411,-0.223 0.576,-0.388c0.166,-0.165 0.295,-0.36 0.389,-0.583c0.094,-0.223 0.141,-0.46 0.141,-0.71c-0,-0.25 -0.047,-0.485 -0.141,-0.703c-0.094,-0.219 -0.223,-0.411 -0.389,-0.577c-0.165,-0.165 -0.357,-0.294 -0.576,-0.388c-0.219,-0.094 -0.453,-0.141 -0.703,-0.141l-1.823,0l0,1.809c0,0.25 0.047,0.487 0.141,0.71c0.094,0.223 0.223,0.418 0.389,0.583c0.165,0.165 0.359,0.295 0.583,0.388c0.223,0.094 0.46,0.141 0.71,0.141" style="fill:#ff671d;fill-rule:nonzero;"></path><path d="M11.094,6.311l0.844,0.844l-0.415,0.415c-0.286,0.286 -0.612,0.505 -0.978,0.657c-0.367,0.152 -0.75,0.228 -1.153,0.228c-0.402,-0 -0.785,-0.076 -1.152,-0.228c-0.366,-0.152 -0.692,-0.371 -0.978,-0.657c-0.295,-0.294 -0.514,-0.627 -0.657,-0.998c-0.142,-0.371 -0.214,-0.748 -0.214,-1.132c0,-0.384 0.072,-0.759 0.214,-1.126c0.143,-0.366 0.362,-0.696 0.657,-0.991c0.295,-0.295 0.628,-0.516 0.998,-0.663c0.371,-0.148 0.748,-0.221 1.132,-0.221c0.385,-0 0.762,0.073 1.133,0.221c0.37,0.147 0.703,0.368 0.998,0.663l0.415,0.415l-3.336,3.337c0.34,0.169 0.699,0.225 1.079,0.167c0.379,-0.058 0.712,-0.23 0.998,-0.516l0.415,-0.415Zm-2.988,-2.157c-0.357,0.357 -0.536,0.786 -0.536,1.286c0,0.277 0.063,0.54 0.188,0.791c0.107,-0.108 0.27,-0.271 0.489,-0.489c0.219,-0.219 0.451,-0.452 0.697,-0.697c0.245,-0.246 0.482,-0.48 0.71,-0.704c0.228,-0.223 0.404,-0.397 0.529,-0.522c-0.339,-0.17 -0.699,-0.228 -1.079,-0.175c-0.379,0.054 -0.712,0.224 -0.998,0.51" style="fill:#ff671d;fill-rule:nonzero;"></path><path d="M17.057,6.311l0.844,0.844l-0.416,0.415c-0.285,0.286 -0.611,0.505 -0.978,0.657c-0.366,0.152 -0.75,0.228 -1.152,0.228c-0.402,-0 -0.786,-0.076 -1.152,-0.228c-0.367,-0.152 -0.693,-0.371 -0.979,-0.657c-0.294,-0.294 -0.513,-0.627 -0.656,-0.998c-0.143,-0.371 -0.214,-0.748 -0.214,-1.132c-0,-0.384 0.071,-0.759 0.214,-1.126c0.143,-0.366 0.362,-0.696 0.656,-0.991c0.295,-0.295 0.628,-0.516 0.999,-0.663c0.37,-0.148 0.748,-0.221 1.132,-0.221c0.384,-0 0.761,0.073 1.132,0.221c0.371,0.147 0.703,0.368 0.998,0.663l0.416,0.415l-3.336,3.337c0.339,0.169 0.698,0.225 1.078,0.167c0.38,-0.058 0.712,-0.23 0.998,-0.516l0.416,-0.415Zm-2.988,-2.157c-0.358,0.357 -0.536,0.786 -0.536,1.286c-0,0.277 0.062,0.54 0.187,0.791c0.107,-0.108 0.27,-0.271 0.489,-0.489c0.219,-0.219 0.452,-0.452 0.697,-0.697c0.246,-0.246 0.483,-0.48 0.71,-0.704c0.228,-0.223 0.404,-0.397 0.529,-0.522c-0.339,-0.17 -0.698,-0.228 -1.078,-0.175c-0.38,0.054 -0.713,0.224 -0.998,0.51" style="fill:#ff671d;fill-rule:nonzero;"></path><path d="M21.907,7.235l-0,1.193l-0.59,-0c-0.41,-0 -0.799,-0.078 -1.165,-0.235c-0.367,-0.156 -0.688,-0.372 -0.965,-0.649c-0.277,-0.277 -0.494,-0.599 -0.65,-0.965c-0.156,-0.366 -0.234,-0.755 -0.234,-1.166l-0,-5.413l1.192,0l0,3.618l2.412,-0l-0,1.192l-2.412,0l0,0.603c0,0.25 0.047,0.487 0.141,0.71c0.094,0.224 0.223,0.418 0.388,0.583c0.166,0.165 0.36,0.295 0.583,0.389c0.224,0.093 0.46,0.14 0.71,0.14l0.59,0Z" style="fill:#fff;fill-rule:nonzero;"></path><rect x="35.185" y="0" width="1.192" height="8.428" style="fill:#fff;"></rect><path d="M42.233,2.412l-0,1.192l-3.631,0c-0.17,0 -0.313,0.058 -0.429,0.175c-0.116,0.116 -0.174,0.258 -0.174,0.428c-0,0.17 0.058,0.315 0.174,0.436c0.116,0.12 0.259,0.181 0.429,0.181l2.412,-0c0.25,-0 0.484,0.047 0.703,0.14c0.219,0.094 0.411,0.221 0.576,0.382c0.166,0.161 0.295,0.351 0.389,0.569c0.093,0.219 0.14,0.454 0.14,0.704c0,0.25 -0.047,0.484 -0.14,0.703c-0.094,0.219 -0.223,0.412 -0.389,0.577c-0.165,0.165 -0.357,0.295 -0.576,0.388c-0.219,0.094 -0.453,0.141 -0.703,0.141l-3.618,-0l-0,-1.192l3.618,-0c0.178,-0 0.326,-0.059 0.442,-0.175c0.116,-0.116 0.174,-0.263 0.174,-0.442c-0,-0.17 -0.058,-0.312 -0.174,-0.429c-0.116,-0.116 -0.264,-0.174 -0.442,-0.174l-2.412,0c-0.25,0 -0.485,-0.047 -0.704,-0.141c-0.218,-0.093 -0.408,-0.223 -0.569,-0.388c-0.161,-0.165 -0.288,-0.357 -0.382,-0.576c-0.094,-0.219 -0.141,-0.454 -0.141,-0.704c0,-0.25 0.047,-0.484 0.141,-0.703c0.094,-0.219 0.221,-0.409 0.382,-0.57c0.161,-0.16 0.351,-0.288 0.569,-0.381c0.219,-0.094 0.454,-0.141 0.704,-0.141l3.631,-0Z" style="fill:#fff;fill-rule:nonzero;"></path><path d="M33.437,6.15c-0.094,0.223 -0.224,0.418 -0.389,0.583c-0.165,0.165 -0.359,0.295 -0.583,0.388c-0.223,0.094 -0.46,0.141 -0.71,0.141c-0.25,0 -0.487,-0.047 -0.71,-0.141c-0.223,-0.093 -0.418,-0.223 -0.583,-0.388c-0.165,-0.165 -0.295,-0.36 -0.389,-0.583c-0.093,-0.223 -0.14,-0.46 -0.14,-0.71c-0,-0.25 0.047,-0.485 0.14,-0.703c0.094,-0.219 0.224,-0.412 0.389,-0.577c0.165,-0.165 0.36,-0.294 0.583,-0.388c0.223,-0.094 0.46,-0.141 0.71,-0.141c0.25,0 0.487,0.047 0.71,0.141c0.224,0.094 0.418,0.223 0.583,0.388c0.165,0.165 0.295,0.358 0.389,0.577c0.093,0.218 0.14,0.453 0.14,0.703c0,0.25 -0.047,0.487 -0.14,0.71m-6.418,0c-0.094,0.223 -0.224,0.418 -0.389,0.583c-0.165,0.165 -0.359,0.295 -0.583,0.388c-0.223,0.094 -0.46,0.141 -0.71,0.141c-0.25,0 -0.487,-0.047 -0.71,-0.141c-0.223,-0.093 -0.418,-0.223 -0.583,-0.388c-0.165,-0.165 -0.295,-0.36 -0.388,-0.583c-0.094,-0.223 -0.141,-0.46 -0.141,-0.71c-0,-0.25 0.047,-0.485 0.141,-0.703c0.093,-0.219 0.223,-0.412 0.388,-0.577c0.165,-0.165 0.36,-0.294 0.583,-0.388c0.223,-0.094 0.46,-0.141 0.71,-0.141c0.25,0 0.487,0.047 0.71,0.141c0.224,0.094 0.418,0.223 0.583,0.388c0.165,0.165 0.295,0.358 0.389,0.577c0.094,0.218 0.14,0.453 0.14,0.703c0,0.25 -0.046,0.487 -0.14,0.71m7.516,-1.882c-0.156,-0.362 -0.373,-0.679 -0.65,-0.952c-0.276,-0.272 -0.596,-0.486 -0.958,-0.643c-0.361,-0.156 -0.752,-0.234 -1.172,-0.234c-0.411,-0 -0.799,0.078 -1.166,0.234c-0.366,0.157 -0.685,0.371 -0.958,0.643c-0.272,0.273 -0.487,0.59 -0.643,0.952c-0.08,0.186 -0.14,0.381 -0.179,0.582l-0.513,0c-0.039,-0.201 -0.098,-0.396 -0.179,-0.582c-0.156,-0.362 -0.373,-0.679 -0.65,-0.952c-0.276,-0.272 -0.596,-0.486 -0.958,-0.643c-0.361,-0.156 -0.752,-0.234 -1.172,-0.234c-0.411,-0 -0.799,0.078 -1.166,0.234c-0.366,0.157 -0.685,0.371 -0.958,0.643c-0.272,0.273 -0.487,0.59 -0.643,0.952c-0.156,0.361 -0.234,0.752 -0.234,1.172c-0,0.411 0.078,0.799 0.234,1.166c0.156,0.366 0.371,0.688 0.643,0.964c0.273,0.277 0.592,0.494 0.958,0.65c0.367,0.157 0.755,0.235 1.166,0.235c0.42,-0 0.811,-0.078 1.172,-0.235c0.362,-0.156 0.682,-0.373 0.958,-0.65c0.277,-0.276 0.494,-0.598 0.65,-0.964c0.078,-0.182 0.136,-0.37 0.175,-0.563l0.521,-0c0.039,0.193 0.098,0.381 0.175,0.563c0.156,0.366 0.371,0.688 0.643,0.964c0.273,0.277 0.592,0.494 0.958,0.65c0.367,0.157 0.755,0.235 1.166,0.235c0.42,-0 0.811,-0.078 1.172,-0.235c0.362,-0.156 0.682,-0.373 0.958,-0.65c0.277,-0.276 0.494,-0.598 0.65,-0.964c0.157,-0.367 0.235,-0.755 0.235,-1.166c-0,-0.42 -0.078,-0.811 -0.235,-1.172" style="fill:#fff;fill-rule:nonzero;"></path></g></svg>